<svg width="40" height="40" viewBox="0 0 40 40" fill="none" xmlns="http://www.w3.org/2000/svg">
<rect width="40" height="40" rx="20" fill="#E33C40"/>
<path fill-rule="evenodd" clip-rule="evenodd" d="M20.03 12.5708C15.6697 15.2537 12.1022 17.453 12.1024 17.4582C12.1029 17.4714 20.8503 21.8072 20.8885 21.8132C20.9054 21.8159 22.5073 20.7613 24.4481 19.4696L27.977 17.1212L27.9818 12.4065C27.9844 9.81343 27.9801 7.69206 27.9723 7.69238C27.9644 7.69271 24.3904 9.88802 20.03 12.5708ZM11.542 19.3477C11.5478 19.8739 11.5646 21.8801 11.5794 23.806C11.6009 26.5964 11.6113 27.3107 11.6306 27.3231C11.6439 27.3317 13.5956 28.4568 15.9677 29.8232L20.2805 32.3078L24.3711 29.6758C26.6209 28.2282 28.4616 27.0395 28.4615 27.0343C28.4614 27.0235 11.5661 18.3911 11.5451 18.3911C11.5376 18.3911 11.5362 18.8216 11.542 19.3477Z" fill="white"/>
</svg>
